<?xml version="1.0" encoding="utf-8"?>
<!-- Generator: Adobe Illustrator 25.3.1, SVG Export Plug-In . SVG Version: 6.00 Build 0)  -->
<svg version="1.1" id="Layer_1" xmlns="http://www.w3.org/2000/svg" xmlns:xlink="http://www.w3.org/1999/xlink" x="0px" y="0px"
	 viewBox="0 0 60 60" style="enable-background:new 0 0 60 60;" xml:space="preserve">
<style type="text/css">
	.st0{fill:#FFFFFF;}
</style>
<path class="st0" d="M54.23,43.27V16.15c0.1-0.86-0.51-1.63-1.37-1.73c-0.12-0.02-0.24-0.02-0.36,0H7.49
	c-0.84-0.11-1.62,0.48-1.73,1.33c-0.02,0.14-0.02,0.27,0,0.4v27.12h-5.77c0.06,0.11,0.15,0.37,0.24,0.37
	c1.65,0.92,3.47,1.48,5.35,1.64c2.96,0.2,8.76,0.3,8.77,0.29h14.91h14.96c0,0,6.95-0.09,9.91-0.29c1.88-0.16,3.7-0.72,5.35-1.64
	c0.19-0.08,0.37-0.21,0.5-0.37h-5.76V43.27z M8.07,16.73h43.85v26.54H8.07V16.73z"/>
</svg>
