<?xml version="1.0" encoding="utf-8"?>
<!-- Generator: Adobe Illustrator 25.3.1, SVG Export Plug-In . SVG Version: 6.00 Build 0)  -->
<svg version="1.1" id="Layer_1" xmlns="http://www.w3.org/2000/svg" xmlns:xlink="http://www.w3.org/1999/xlink" x="0px" y="0px"
	 viewBox="0 0 60 60" style="enable-background:new 0 0 60 60;" xml:space="preserve">
<style type="text/css">
	.st0{fill:#FFFFFF;}
</style>
<g>
	<path class="st0" d="M13.72,36.53v13.14c0.08,1.17,0.98,2.13,2.14,2.28h2.45c1.32-0.16,2.3-1.29,2.26-2.62V34.82
		c-2.18,0.88-4.51,1.33-6.86,1.32L13.72,36.53z M20.12,12.54c-2.73-0.04-5.41,0.73-7.71,2.19c-2.22,1.23-4.17,2.9-5.74,4.9
		c1.31,0.33,2.54,0.91,3.63,1.71c1.18,0.8,2.18,1.84,2.93,3.05c1.11,1.52,1.84,3.28,2.11,5.14c0.2,1.02,0.2,2.07,0,3.08
		c-0.07,0.41-0.17,0.82-0.33,1.22c1.98-0.16,3.93-0.62,5.78-1.35l0.48-0.27c1.47-0.91,2.84-1.99,4.08-3.2l0.17-0.21
		c1.57-1.57,2.53-3.64,2.74-5.84c0.12-2.44-0.57-4.85-1.97-6.86c-2.67-3.22-4.94-3.56-6.15-3.56L20.12,12.54z M24.01,19.8l-3.7,2.67
		c-0.67,0.49-1.6,0.34-2.08-0.32v-0.01c-0.48-0.71-0.34-1.67,0.33-2.21l3.63-2.69c0.69-0.45,1.63-0.26,2.08,0.43
		C24.77,18.34,24.65,19.28,24.01,19.8z M13.89,30.09c-0.33-1.88-1.13-3.64-2.31-5.14c-0.62-1-1.42-1.88-2.37-2.59
		c-0.78-0.58-1.69-0.97-2.66-1.1c-0.75-0.13-1.52-0.03-2.21,0.27c-1.67,0.79-3.01,2.16-3.73,3.86c-0.34,0.82-0.55,1.69-0.6,2.57
		c-0.03,0.69,0.04,1.39,0.22,2.06c0.09,0.32,0.2,0.62,0.33,0.93c0.31,0.71,0.7,1.39,1.17,2.01c0.56,0.83,1.25,1.58,2.04,2.19
		c1.38,1.04,3.09,1.53,4.82,1.39c0.95-0.04,1.88-0.28,2.72-0.72c0.82-0.34,1.5-0.94,1.94-1.71c0.68-1.21,0.91-2.61,0.65-3.98
		L13.89,30.09z M5.89,33.86c-1.24-0.28-2.31-1.06-2.95-2.16c-0.76-0.97-1.09-2.21-0.93-3.43c0.24-0.79,1.15-0.77,1.71,0l2.81,3.87
		C6.97,32.95,6.64,33.93,5.89,33.86L5.89,33.86z M46.28,36.53v-0.41c-2.35,0.02-4.68-0.43-6.86-1.3v14.52
		c-0.04,1.33,0.94,2.47,2.26,2.62h2.45c1.16-0.15,2.05-1.09,2.14-2.25V36.53z M44.57,32.67c-0.19-0.99-0.19-2.01,0-3
		c0.27-1.86,0.99-3.63,2.11-5.14c0.76-1.27,1.8-2.36,3.03-3.19c1.09-0.8,2.32-1.39,3.63-1.71c-1.57-2-3.52-3.67-5.74-4.9
		c-2.31-1.47-4.99-2.24-7.73-2.19c-1.23,0-3.43,0.33-6.19,3.56c-1.4,2-2.1,4.41-1.97,6.86c0.21,2.21,1.18,4.27,2.74,5.84l0.17,0.21
		c1.23,1.22,2.6,2.29,4.08,3.2l0.48,0.27c1.85,0.74,3.79,1.19,5.78,1.35c-0.17-0.37-0.3-0.75-0.39-1.15L44.57,32.67z M41.81,22.13
		c-0.49,0.67-1.41,0.82-2.08,0.33l0,0L36,19.8c-0.66-0.51-0.78-1.46-0.27-2.13c0.46-0.69,1.39-0.88,2.08-0.44l3.63,2.69
		c0.69,0.47,0.88,1.41,0.41,2.11L41.81,22.13z M59.34,25.46c-0.73-1.67-2.04-3.02-3.68-3.8c-0.69-0.3-1.46-0.4-2.21-0.27
		c-0.97,0.13-1.88,0.51-2.66,1.1c-0.94,0.71-1.74,1.59-2.37,2.59c-1.18,1.49-1.98,3.26-2.31,5.14c-0.27,1.36-0.05,2.77,0.62,3.98
		c0.44,0.77,1.12,1.37,1.94,1.71c0.86,0.41,1.81,0.63,2.76,0.63c1.71,0.15,3.42-0.34,4.8-1.37c0.8-0.62,1.49-1.37,2.06-2.21
		c0.46-0.62,0.84-1.3,1.15-2.01c0.13-0.3,0.23-0.61,0.33-0.93c0.19-0.67,0.27-1.36,0.24-2.06C59.92,27.1,59.7,26.25,59.34,25.46z
		 M57.06,31.77c-0.66,1.1-1.75,1.88-3,2.16c-0.75,0-1.08-0.91-0.58-1.71l2.81-3.87c0.5-0.82,1.41-0.84,1.71,0
		C58.16,29.56,57.83,30.8,57.06,31.77z"/>
</g>
</svg>
