<?xml version="1.0" encoding="utf-8"?>
<!-- Generator: Adobe Illustrator 25.3.1, SVG Export Plug-In . SVG Version: 6.00 Build 0)  -->
<svg version="1.1" id="Layer_1" xmlns="http://www.w3.org/2000/svg" xmlns:xlink="http://www.w3.org/1999/xlink" x="0px" y="0px"
	 viewBox="0 0 60 60" style="enable-background:new 0 0 60 60;" xml:space="preserve">
<style type="text/css">
	.st0{fill:#FFFFFF;}
</style>
<g>
	<path class="st0" d="M33.09,2.55h-9.37c-1.1,0-2,0.89-2.02,1.99v50.91c0.01,1.11,0.91,2,2.02,1.99l0,0h9.37
		c-0.79-0.33-1.27-1.14-1.17-1.99V4.54C31.87,3.7,32.33,2.92,33.09,2.55z"/>
	<path class="st0" d="M21.6,2.55h-9.37c-1.1,0-2,0.89-2.02,1.99v50.91c0.01,1.11,0.91,2,2.02,1.99l0,0h9.37
		c-0.79-0.33-1.27-1.14-1.17-1.99V4.54C20.38,3.7,20.84,2.92,21.6,2.55z"/>
	<path class="st0" d="M49.79,55.76V4.48c0.03-0.98-0.7-1.82-1.67-1.93h-3.44v5.11h2.55v44.68h-2.55v5.11h3.45
		c0.92,0,1.66-0.74,1.66-1.66V55.76z"/>
	<path class="st0" d="M41.73,0h-0.06c-2.29,0.73-4.53,1.58-6.73,2.55c-1.01,0.42-1.68,1.38-1.75,2.46v50.04
		c0.09,1.05,0.76,1.98,1.73,2.39c0,0,5.96,2.44,6.73,2.55c0.95,0.02,1.73-0.74,1.75-1.7l0,0V1.72C43.42,0.79,42.67,0.02,41.73,0
		L41.73,0z"/>
</g>
</svg>
