<?xml version="1.0" encoding="utf-8"?>
<!-- Generator: Adobe Illustrator 24.1.0, SVG Export Plug-In . SVG Version: 6.00 Build 0)  -->
<svg version="1.1" id="Layer_1" xmlns="http://www.w3.org/2000/svg" xmlns:xlink="http://www.w3.org/1999/xlink" x="0px" y="0px"
	 viewBox="0 0 150 150" style="enable-background:new 0 0 150 150;" xml:space="preserve">
<style type="text/css">
	.st0{fill:none;}
	.st1{fill:#FFFFFF;}
</style>
<path class="st0" d="M19-0.6h112v151.2H19V-0.6z"/>
<path class="st1" d="M65.8,139.4H36h-1c-0.3,0-0.5,0-0.8,0c-1.4,0-2.9-0.1-4.3-0.3c-1-0.2-1.9-0.5-2.8-0.9c-1.7-0.9-3.2-2.3-4-4
	c-0.4-0.9-0.8-1.8-0.9-2.8c-0.3-1.5-0.4-3.1-0.3-4.7v-0.8c0-0.2,0-0.4,0-0.6v-92c0-0.2,0-0.4,0-0.6c0-0.3,0-0.5,0-0.8
	c0-1.6,0.1-3.1,0.3-4.7c0.2-1,0.5-1.9,0.9-2.8c0.9-1.7,2.3-3.2,4-4c0.9-0.4,1.8-0.8,2.8-0.9c1-0.2,2-0.3,3-0.3c0.7,0,1.7,0,2.5,0H36
	h24.8c0,0.5,0,1.1,0,1.6V21v0.4v0.4H36h-0.3h-0.3c-0.8,0-1.7,0-2.4,0c-0.9,0-1.7,0.1-2.6,0.2c-0.7,0.1-1.4,0.4-2,0.7
	c-1.2,0.6-2.2,1.6-2.8,2.8c-0.3,0.6-0.6,1.3-0.7,2c-0.2,1.4-0.3,2.8-0.3,4.2v0.8v0.6v92v0.6v0.8c0,1.4,0.1,2.8,0.3,4.2
	c0.1,0.7,0.4,1.4,0.7,2c0.6,1.2,1.6,2.2,2.8,2.8c0.6,0.3,1.3,0.6,2,0.7c1.2,0.2,2.5,0.3,3.8,0.3l0.8,0h1h27.1
	C63.8,137.7,64.7,138.6,65.8,139.4L65.8,139.4z M57,23.4c1.4,0,2.6,1.1,2.6,2.6s-1.1,2.6-2.6,2.6H45.4c-1.4,0-2.6-1.1-2.6-2.6
	s1.1-2.6,2.6-2.6H57z M57.2,24.7c-0.7,0-1.3,0.6-1.3,1.3s0.6,1.3,1.3,1.3c0.7,0,1.3-0.6,1.3-1.3l0,0C58.4,25.3,57.9,24.7,57.2,24.7z
	 M104.4,14.8c0,1.4-1.1,2.6-2.6,2.6H90.2c-1.4,0-2.6-1.1-2.6-2.6s1.1-2.6,2.6-2.6l0,0h11.7C103.3,12.2,104.4,13.4,104.4,14.8z
	 M103.2,14.8c0-0.7-0.6-1.3-1.3-1.3c-0.7,0-1.3,0.6-1.3,1.3c0,0.7,0.6,1.3,1.3,1.3S103.2,15.5,103.2,14.8L103.2,14.8z M128.2,21.4
	v104.3c0,0.3,0,0.6,0,0.8c0,1.6-0.1,3.1-0.3,4.7c-0.2,1-0.5,1.9-0.9,2.8c-0.9,1.7-2.3,3.2-4.1,4.1c-0.9,0.4-1.8,0.8-2.8,0.9
	c-1,0.2-2,0.3-3,0.3c-0.7,0-1.7,0-2.5,0h-0.6H78.1h-1c-0.3,0-0.6,0-0.8,0c-1.2,0-2.4-0.1-3.5-0.2c-0.2,0-0.5,0-0.7-0.1
	c-1-0.2-1.9-0.5-2.8-0.9c-0.8-0.4-1.5-0.9-2.2-1.5c-0.1-0.1-0.1-0.1-0.2-0.2c-0.7-0.7-1.3-1.5-1.7-2.4c-0.4-0.9-0.8-1.8-0.9-2.8
	c-0.3-1.6-0.4-3.1-0.3-4.7c0-0.3,0-0.5,0-0.8V21.4c0-0.3,0-0.6,0-0.8c0-0.5,0-1.1,0-1.6c0-1,0.1-2.1,0.3-3.1c0.2-1,0.5-1.9,0.9-2.8
	c0.9-1.7,2.3-3.2,4.1-4.1c0.9-0.4,1.8-0.8,2.8-0.9c1-0.2,2-0.3,3-0.3c0.7,0,1.7,0,2.5,0h0.6h35.9h0.5h0.5c0.3,0,0.6,0,0.8,0
	c1.4,0,2.9,0.1,4.3,0.3c1,0.2,1.9,0.5,2.8,0.9c1.7,0.9,3.2,2.3,4.1,4.1c0.4,0.9,0.8,1.8,0.9,2.8c0.3,1.6,0.4,3.1,0.3,4.7L128.2,21.4
	z M125.4,21.4V21v-0.4c0-1.4-0.1-2.8-0.3-4.2c-0.1-0.7-0.4-1.4-0.7-2.1c-0.6-1.2-1.6-2.2-2.8-2.8c-0.6-0.3-1.3-0.6-2.1-0.7
	c-1.2-0.2-2.5-0.3-3.8-0.3l-0.8,0h-0.5h-0.3H78.1h-0.3h-0.3c-0.8,0-1.7,0-2.4,0c-0.9,0-1.7,0.1-2.6,0.2c-0.7,0.1-1.4,0.4-2.1,0.7
	c-1.2,0.6-2.2,1.6-2.8,2.8c-0.3,0.6-0.6,1.3-0.7,2.1c-0.1,0.8-0.2,1.7-0.2,2.6c0,0.5,0,1,0,1.6V21v0.4v104.3v0.4v0.4
	c0,1.4,0.1,2.8,0.3,4.2c0.1,0.7,0.4,1.4,0.7,2.1c0.6,1.2,1.6,2.2,2.8,2.8c0.6,0.3,1.3,0.6,2.1,0.7c0.1,0,0.1,0,0.2,0
	c1.2,0.2,2.4,0.3,3.6,0.2l0.8,0h1h36.2h0.3c0.8,0,1.7,0,2.4,0c0.9,0,1.7-0.1,2.6-0.2c0.7-0.1,1.4-0.4,2.1-0.7
	c1.2-0.6,2.2-1.6,2.8-2.8c0.3-0.6,0.6-1.3,0.7-2.1c0.2-1.4,0.3-2.8,0.3-4.2v-0.4v-0.4V21.4z"/>
</svg>
