<?xml version="1.0" encoding="utf-8"?>
<!-- Generator: Adobe Illustrator 25.3.1, SVG Export Plug-In . SVG Version: 6.00 Build 0)  -->
<svg version="1.1" id="Layer_1" xmlns="http://www.w3.org/2000/svg" xmlns:xlink="http://www.w3.org/1999/xlink" x="0px" y="0px"
	 viewBox="0 0 60 60" style="enable-background:new 0 0 60 60;" xml:space="preserve">
<style type="text/css">
	.st0{fill:#FFFFFF;}
</style>
<g>
	<path class="st0" d="M44.37,5V3.75c0-0.69-0.56-1.25-1.25-1.25h-35c-0.69,0-1.25,0.56-1.25,1.25v52.5c0,0.69,0.56,1.25,1.25,1.25
		h8.75c0.1,1.04,0.68,1.97,1.59,2.5H8.13c-2.07,0-3.75-1.68-3.75-3.75V3.75C4.38,1.68,6.06,0,8.13,0h35c2.07,0,3.75,1.68,3.75,3.75
		V5H44.37z M51.87,6.25c2.07,0,3.75,1.68,3.75,3.75v46.25c0,2.07-1.68,3.75-3.75,3.75h-30c-2.07,0-3.75-1.68-3.75-3.75V10
		c0-2.07,1.68-3.75,3.75-3.75H51.87z M53.12,10c0-0.69-0.56-1.25-1.25-1.25h-30c-0.69,0-1.25,0.56-1.25,1.25v46.25
		c0,0.69,0.56,1.25,1.25,1.25h30c0.69,0,1.25-0.56,1.25-1.25V10z"/>
</g>
</svg>
