<?xml version="1.0" encoding="utf-8"?>
<!-- Generator: Adobe Illustrator 25.3.1, SVG Export Plug-In . SVG Version: 6.00 Build 0)  -->
<svg version="1.1" id="Layer_1" xmlns="http://www.w3.org/2000/svg" xmlns:xlink="http://www.w3.org/1999/xlink" x="0px" y="0px"
	 viewBox="0 0 60 60" style="enable-background:new 0 0 60 60;" xml:space="preserve">
<style type="text/css">
	.st0{fill:#FFFFFF;}
</style>
<g>
	<g>
		<path class="st0" d="M56.84,23.53H3.16C1.42,23.53,0,24.95,0,26.68v26.84c0,1.74,1.42,3.16,3.16,3.16h53.68
			c1.74,0,3.16-1.42,3.16-3.16V26.68C60,24.95,58.58,23.53,56.84,23.53z M16.2,37.45c-0.92,0.6-2.15,0.35-2.75-0.57
			c-0.63-0.98-1.48-1.45-2.27-1.29c-0.38,0.09-0.69,0.32-0.73,0.6c-0.06,0.44,0.47,1.26,1.83,2.08c3.85,2.34,4.07,4.89,3.88,6.22
			c-0.28,1.93-1.83,3.47-3.92,3.95c-0.44,0.09-0.92,0.16-1.36,0.16c-1.96,0-3.82-0.98-5.08-2.75c-0.63-0.88-0.41-2.12,0.47-2.75
			c0.88-0.63,2.12-0.41,2.75,0.47c0.88,1.23,1.89,1.14,2.31,1.04c0.47-0.13,0.85-0.41,0.92-0.73c0.06-0.35-0.32-1.2-2.02-2.24
			c-3.88-2.34-3.88-5.08-3.69-6.13c0.32-1.89,1.83-3.38,3.82-3.79c1.86-0.38,4.55,0.19,6.38,3C17.37,35.62,17.12,36.85,16.2,37.45z
			 M29.94,48.35c-0.22,0.09-0.47,0.13-0.69,0.13c-0.79,0-1.55-0.47-1.83-1.26l-0.57-1.52h-4.67l-0.57,1.52
			c-0.38,1.01-1.52,1.52-2.56,1.14c-1.04-0.41-1.55-1.55-1.17-2.56l4.77-12.47c0.28-0.76,1.01-1.26,1.83-1.26s1.55,0.51,1.83,1.26
			l4.77,12.47C31.48,46.8,30.95,47.94,29.94,48.35z M39.92,48.44h-4.74c-1.11,0-1.99-0.88-1.99-1.99V33.82
			c0-1.11,0.88-1.99,1.99-1.99c1.11,0,1.99,0.88,1.99,1.99v10.67h2.78c1.11,0,1.99,0.88,1.99,1.99
			C41.87,47.56,40.99,48.44,39.92,48.44z M50.87,38.18c1.11,0,1.99,0.88,1.99,1.99c0,1.11-0.88,1.99-1.99,1.99h-2.65v2.37h4.36
			c1.11,0,1.99,0.88,1.99,1.99c0,1.11-0.88,1.99-1.99,1.99h-6.32c-1.11,0-1.99-0.88-1.99-1.99V33.88c0-1.11,0.88-1.99,1.99-1.99
			h6.32c1.11,0,1.99,0.88,1.99,1.99c0,1.11-0.88,1.99-1.99,1.99h-4.36v2.37h2.65V38.18z M23.65,41.72h1.64l-0.82-2.15L23.65,41.72z"
			/>
		<path class="st0" d="M30.28,3.32c-2.84,0-5.15,2.31-5.15,5.15s2.34,5.12,5.15,5.12c2.84,0,5.15-2.31,5.15-5.12
			S33.13,3.32,30.28,3.32z M23.37,11.31c-0.47-1.17-1.96-1.48-2.97-0.73l-8.94,7.04c-0.85,0.66-1.01,1.89-0.35,2.78
			c0.38,0.51,0.98,0.76,1.55,0.76c0.41,0,0.85-0.13,1.23-0.41l8.94-7.01c0.73-0.57,0.92-1.52,0.57-2.34
			C23.4,11.34,23.4,11.34,23.37,11.31z M48.54,17.15l-8.34-6.54c-0.98-0.79-2.49-0.44-2.97,0.73c0,0,0,0.03-0.03,0.03
			c-0.35,0.82-0.16,1.8,0.57,2.34l8.34,6.54c0.35,0.28,0.79,0.41,1.23,0.41c0.6,0,1.17-0.25,1.55-0.76
			C49.55,19.07,49.39,17.81,48.54,17.15z"/>
	</g>
</g>
</svg>
